<svg width="123" height="24" viewBox="0 0 123 24" fill="none" xmlns="http://www.w3.org/2000/svg">
<path d="M4.37891 0.9375V18H0.277344V0.9375H4.37891ZM14.2227 0.9375L8.09375 11.25H3.66406L3.17188 7.53516H5.97266L9.25391 0.9375H14.2227ZM9.95703 18L5.96094 10.5352L8.94922 7.78125L14.8086 18H9.95703ZM19.543 12.6797L23.0352 5.32031H26.9844V18H23.0352V10.6172L19.543 18H15.582V5.32031H19.543V12.6797ZM37.8945 10.2656V13.3008H31.5664V10.2656H37.8945ZM33.0078 5.32031V18H29.0586V5.32031H33.0078ZM40.4258 5.32031V18H36.4648V5.32031H40.4258ZM42.1133 11.7891V11.543C42.1133 10.6133 42.2461 9.75781 42.5117 8.97656C42.7773 8.1875 43.168 7.50391 43.6836 6.92578C44.1992 6.34766 44.8359 5.89844 45.5938 5.57812C46.3516 5.25 47.2266 5.08594 48.2188 5.08594C49.2188 5.08594 50.0977 5.25 50.8555 5.57812C51.6211 5.89844 52.2617 6.34766 52.7773 6.92578C53.293 7.50391 53.6836 8.1875 53.9492 8.97656C54.2148 9.75781 54.3477 10.6133 54.3477 11.543V11.7891C54.3477 12.7109 54.2148 13.5664 53.9492 14.3555C53.6836 15.1367 53.293 15.8203 52.7773 16.4062C52.2617 16.9844 51.625 17.4336 50.8672 17.7539C50.1094 18.0742 49.2344 18.2344 48.2422 18.2344C47.25 18.2344 46.3711 18.0742 45.6055 17.7539C44.8398 17.4336 44.1992 16.9844 43.6836 16.4062C43.168 15.8203 42.7773 15.1367 42.5117 14.3555C42.2461 13.5664 42.1133 12.7109 42.1133 11.7891ZM46.0625 11.543V11.7891C46.0625 12.2656 46.0977 12.7109 46.168 13.125C46.2383 13.5391 46.3555 13.9023 46.5195 14.2148C46.6836 14.5195 46.9062 14.7578 47.1875 14.9297C47.4688 15.1016 47.8203 15.1875 48.2422 15.1875C48.6562 15.1875 49 15.1016 49.2734 14.9297C49.5547 14.7578 49.7773 14.5195 49.9414 14.2148C50.1055 13.9023 50.2227 13.5391 50.293 13.125C50.3633 12.7109 50.3984 12.2656 50.3984 11.7891V11.543C50.3984 11.082 50.3633 10.6484 50.293 10.2422C50.2227 9.82812 50.1055 9.46484 49.9414 9.15234C49.7773 8.83203 49.5547 8.58203 49.2734 8.40234C48.9922 8.22266 48.6406 8.13281 48.2188 8.13281C47.8047 8.13281 47.457 8.22266 47.1758 8.40234C46.9023 8.58203 46.6836 8.83203 46.5195 9.15234C46.3555 9.46484 46.2383 9.82812 46.168 10.2422C46.0977 10.6484 46.0625 11.082 46.0625 11.543ZM70.6133 0.9375V18H66.5V4.11328H60.3711V18H56.2695V0.9375H70.6133ZM76.8945 16.5117L80.1758 5.32031H84.418L79.3203 19.8867C79.2109 20.207 79.0664 20.5508 78.8867 20.918C78.707 21.293 78.4609 21.6484 78.1484 21.9844C77.8359 22.3203 77.4336 22.5938 76.9414 22.8047C76.457 23.0156 75.8555 23.1211 75.1367 23.1211C74.7539 23.1211 74.4727 23.1016 74.293 23.0625C74.1211 23.0312 73.8555 22.9727 73.4961 22.8867V20.0625C73.5977 20.0625 73.6836 20.0625 73.7539 20.0625C73.832 20.0625 73.918 20.0625 74.0117 20.0625C74.4336 20.0625 74.7695 20.0195 75.0195 19.9336C75.2773 19.8477 75.4727 19.7227 75.6055 19.5586C75.7461 19.3945 75.8555 19.1953 75.9336 18.9609L76.8945 16.5117ZM76.0625 5.32031L78.5586 14.1914L78.9922 18.375H76.3438L71.832 5.32031H76.0625ZM93.5586 5.32031V8.36719H87.2773V5.32031H93.5586ZM96.2891 5.32031V18H92.3398V5.32031H96.2891ZM86.2812 5.32031H90.1367L89.7852 11.8477C89.7383 12.7539 89.6328 13.5469 89.4688 14.2266C89.3125 14.9062 89.1016 15.4883 88.8359 15.9727C88.5781 16.4492 88.2695 16.8398 87.9102 17.1445C87.5508 17.4414 87.1445 17.6602 86.6914 17.8008C86.2383 17.9336 85.7461 18 85.2148 18H84.0195L83.9609 14.9766L84.3828 14.9297C84.5938 14.9062 84.7812 14.8359 84.9453 14.7188C85.1094 14.6016 85.2539 14.4375 85.3789 14.2266C85.5039 14.0156 85.6094 13.7461 85.6953 13.418C85.7891 13.0898 85.8633 12.7031 85.918 12.2578C85.9805 11.8125 86.0234 11.3008 86.0469 10.7227L86.2812 5.32031ZM101.094 8.80078H104.703C105.922 8.80078 106.965 8.99609 107.832 9.38672C108.707 9.76953 109.379 10.3125 109.848 11.0156C110.316 11.7109 110.551 12.5234 110.551 13.4531C110.551 14.1172 110.418 14.7305 110.152 15.293C109.887 15.8477 109.5 16.3281 108.992 16.7344C108.492 17.1328 107.879 17.4453 107.152 17.6719C106.434 17.8906 105.617 18 104.703 18H98.7266V5.32031H102.688V14.9766H104.703C105.156 14.9766 105.52 14.9062 105.793 14.7656C106.074 14.625 106.281 14.4375 106.414 14.2031C106.547 13.9688 106.613 13.7109 106.613 13.4297C106.613 13.1172 106.547 12.8438 106.414 12.6094C106.281 12.3672 106.074 12.1797 105.793 12.0469C105.52 11.9062 105.156 11.8359 104.703 11.8359H101.094V8.80078ZM117.383 15.1875C117.75 15.1875 118.062 15.1211 118.32 14.9883C118.586 14.8477 118.785 14.6523 118.918 14.4023C119.059 14.1445 119.125 13.8359 119.117 13.4766H122.832C122.84 14.4297 122.605 15.2656 122.129 15.9844C121.66 16.6953 121.02 17.25 120.207 17.6484C119.402 18.0391 118.492 18.2344 117.477 18.2344C116.484 18.2344 115.617 18.0742 114.875 17.7539C114.133 17.4258 113.512 16.9727 113.012 16.3945C112.52 15.8086 112.148 15.125 111.898 14.3438C111.656 13.5625 111.535 12.7148 111.535 11.8008V11.5312C111.535 10.6172 111.656 9.76953 111.898 8.98828C112.148 8.19922 112.52 7.51562 113.012 6.9375C113.512 6.35156 114.129 5.89844 114.863 5.57812C115.605 5.25 116.469 5.08594 117.453 5.08594C118.508 5.08594 119.438 5.28516 120.242 5.68359C121.055 6.08203 121.691 6.66016 122.152 7.41797C122.613 8.17578 122.84 9.09375 122.832 10.1719H119.117C119.125 9.78906 119.066 9.44531 118.941 9.14062C118.816 8.83594 118.621 8.59375 118.355 8.41406C118.098 8.22656 117.766 8.13281 117.359 8.13281C116.953 8.13281 116.625 8.22266 116.375 8.40234C116.125 8.58203 115.934 8.83203 115.801 9.15234C115.676 9.46484 115.59 9.82422 115.543 10.2305C115.504 10.6367 115.484 11.0703 115.484 11.5312V11.8008C115.484 12.2695 115.504 12.7109 115.543 13.125C115.59 13.5312 115.68 13.8906 115.812 14.2031C115.945 14.5078 116.137 14.75 116.387 14.9297C116.637 15.1016 116.969 15.1875 117.383 15.1875Z" fill="white"/>
</svg>
